<?xml version="1.0" standalone="no"?>
<!DOCTYPE svg PUBLIC "-//W3C//DTD SVG 20010904//EN"
 "http://www.w3.org/TR/2001/REC-SVG-20010904/DTD/svg10.dtd">
<svg version="1.0" xmlns="http://www.w3.org/2000/svg"
 width="512.000000pt" height="512.000000pt" viewBox="0 0 512.000000 512.000000"
 preserveAspectRatio="xMidYMid meet">

<g transform="translate(0.000000,512.000000) scale(0.100000,-0.100000)"
fill="#000000" stroke="none">
<path d="M3480 4445 c-58 -18 -115 -66 -142 -118 -18 -33 -23 -64 -26 -149
l-4 -108 51 0 51 0 0 96 c0 79 4 102 20 129 42 67 13 65 787 65 679 0 699 -1
731 -20 18 -11 41 -34 52 -52 20 -33 20 -54 20 -1673 0 -1579 -1 -1642 -19
-1675 -11 -20 -36 -44 -62 -58 l-43 -23 -696 3 -695 3 -33 23 c-54 39 -62 66
-62 212 l0 130 -50 0 -50 0 0 -129 c0 -150 12 -197 68 -255 54 -56 103 -76
190 -76 65 0 72 -2 72 -20 0 -53 41 -90 100 -90 59 0 100 37 100 90 0 19 10
20 375 20 l375 0 0 -29 c0 -16 9 -39 19 -52 16 -20 29 -24 74 -24 65 0 94 21
99 69 l3 31 80 6 c93 6 142 26 186 77 69 79 64 -70 64 1767 l0 1660 -30 53
c-32 59 -87 103 -150 121 -64 18 -1396 14 -1455 -4z"/>
<path d="M3497 4299 c-30 -18 -47 -73 -47 -154 l0 -75 78 0 c77 0 77 0 92 33
8 17 26 37 40 44 19 10 153 13 553 13 580 0 574 1 596 -60 12 -36 3 -66 -29
-95 -21 -19 -38 -20 -431 -23 l-409 -3 16 -24 c9 -14 22 -44 29 -67 l12 -43
386 -5 c378 -5 387 -5 408 -26 31 -32 29 -92 -6 -121 l-26 -23 -380 0 -379 0
0 -70 0 -69 379 -3 c363 -3 380 -4 401 -23 32 -29 41 -59 29 -95 -21 -59 -30
-60 -439 -60 l-370 0 0 -943 c0 -1047 2 -1005 -66 -1085 -67 -79 -93 -86 -302
-90 l-184 -4 4 -129 c3 -125 4 -129 31 -156 l27 -28 688 -3 c503 -2 694 1 715
9 61 26 57 -99 57 1692 l0 1639 -29 29 -29 29 -699 0 c-478 -1 -704 -4 -716
-11z m799 -2322 c64 -58 55 -152 -19 -198 -77 -48 -187 11 -187 101 0 81 47
129 128 130 34 0 49 -6 78 -33z m-46 -376 c17 -32 13 -157 -6 -175 -18 -19
-45 -21 -62 -4 -16 16 -16 170 0 186 18 18 56 14 68 -7z"/>
<path d="M106 3950 c-41 -13 -84 -58 -96 -99 -13 -49 -13 -2353 0 -2402 5 -19
24 -48 41 -65 l30 -29 1852 -3 c1798 -2 1853 -1 1883 17 68 42 64 -41 64 1288
0 1184 0 1198 -20 1231 -12 19 -38 41 -63 52 -41 19 -88 20 -1852 19 -996 0
-1823 -5 -1839 -9z m3529 -1300 l0 -1055 -1692 -3 -1693 -2 0 1060 0 1060
1693 -2 1692 -3 0 -1055z m-1651 -1131 c32 -25 34 -64 4 -96 -23 -25 -48 -29
-79 -12 -45 24 -43 100 3 119 34 13 43 12 72 -11z"/>
<path d="M1769 3247 c-116 -43 -179 -128 -179 -239 0 -82 19 -128 77 -185 28
-29 56 -53 62 -53 25 0 8 42 -28 76 -146 131 -53 368 144 369 194 0 288 -240
144 -369 -40 -37 -51 -66 -24 -66 23 0 84 59 106 103 27 52 35 135 19 192 -15
55 -78 128 -133 157 -51 26 -140 33 -188 15z"/>
<path d="M1783 3125 c-61 -26 -94 -128 -61 -188 l12 -22 7 25 c4 14 7 42 8 63
1 29 9 46 31 69 28 27 36 30 73 25 56 -8 87 -43 88 -100 0 -23 4 -51 9 -62 7
-19 9 -18 19 8 49 124 -65 235 -186 182z"/>
<path d="M1796 2979 l-26 -20 0 -245 c0 -134 -4 -244 -8 -244 -5 0 -25 18 -45
40 -36 40 -69 50 -112 34 -24 -9 -47 -61 -39 -87 4 -12 56 -90 115 -174 60
-83 113 -162 118 -175 5 -12 19 -32 31 -43 20 -18 36 -20 196 -20 163 0 175 1
194 21 13 13 37 73 61 154 37 126 39 140 39 269 0 148 -7 173 -54 185 -14 3
-37 1 -51 -4 -23 -9 -30 -7 -48 16 -18 23 -26 26 -68 22 -42 -4 -51 -2 -69 20
-19 21 -28 24 -66 19 l-44 -5 0 105 c0 97 -2 106 -25 128 -30 30 -64 32 -99 4z"/>
<path d="M1479 1244 c-10 -12 -15 -62 -19 -173 l-5 -155 -165 -91 c-163 -91
-165 -92 -165 -126 l0 -34 815 0 815 0 3 35 2 35 -170 93 -170 93 0 154 c0
126 -3 156 -16 169 -14 14 -69 16 -463 16 -405 0 -450 -2 -462 -16z"/>
</g>
</svg>
