<?xml version="1.0" standalone="no"?>
<!DOCTYPE svg PUBLIC "-//W3C//DTD SVG 20010904//EN"
 "http://www.w3.org/TR/2001/REC-SVG-20010904/DTD/svg10.dtd">
<svg version="1.0" xmlns="http://www.w3.org/2000/svg"
 width="900.000000pt" height="520.000000pt" viewBox="0 0 900.000000 520.000000"
 preserveAspectRatio="xMidYMid meet">

<g transform="translate(0.000000,520.000000) scale(0.100000,-0.100000)"
fill="#000000" stroke="none">
<path d="M5420 4525 c-62 -20 -118 -69 -146 -129 -20 -43 -24 -67 -24 -148 l0
-98 49 0 48 0 1 94 c0 102 11 134 60 171 26 20 45 20 737 23 695 2 711 2 743
-18 18 -11 41 -34 52 -52 20 -33 20 -54 20 -1672 l0 -1638 -21 -38 c-11 -20
-35 -45 -52 -56 -31 -18 -63 -19 -722 -22 l-690 -2 -45 22 c-70 36 -82 66 -84
216 l-1 127 -47 3 -48 3 0 -129 c0 -150 13 -202 67 -257 53 -54 104 -75 191
-75 72 0 72 0 72 -27 1 -48 42 -83 99 -83 60 0 101 37 101 91 0 19 8 19 372
17 l372 -3 7 -34 c10 -47 30 -63 86 -68 42 -4 54 -1 76 18 14 13 28 38 30 54
4 30 4 30 83 36 92 6 141 26 185 77 69 79 64 -70 64 1767 l0 1660 -30 53 c-32
59 -87 103 -150 121 -64 18 -1396 14 -1455 -4z"/>
<path d="M5437 4379 c-30 -18 -47 -73 -47 -154 l0 -75 78 0 c77 0 77 0 92 33
8 17 26 37 40 44 19 10 153 13 553 13 580 0 574 1 596 -60 12 -36 3 -66 -29
-95 -21 -19 -38 -20 -429 -22 -223 -1 -407 -3 -409 -3 -1 0 5 -11 14 -25 9
-13 22 -44 29 -67 l12 -43 386 -5 c378 -5 387 -5 408 -26 31 -32 29 -92 -6
-121 l-26 -23 -380 0 -379 0 0 -70 0 -70 33 -2 c17 -1 188 -2 378 -2 332 -1
348 -2 369 -21 35 -31 42 -62 25 -99 -9 -18 -27 -38 -41 -45 -17 -7 -139 -11
-394 -11 l-370 0 -2 -962 c-3 -1065 1 -992 -68 -1072 -64 -73 -92 -81 -298
-84 l-184 -4 4 -129 c3 -125 4 -129 31 -156 l27 -28 688 -3 c503 -2 694 1 715
9 61 26 57 -99 57 1692 l0 1639 -29 29 -29 29 -699 0 c-478 -1 -704 -4 -716
-11z m799 -2322 c64 -58 55 -152 -19 -198 -77 -48 -187 11 -187 101 0 81 47
129 128 130 34 0 49 -6 78 -33z m-46 -376 c5 -11 10 -51 10 -90 0 -73 -13
-101 -49 -101 -32 0 -41 22 -41 105 0 50 5 86 12 93 18 18 56 14 68 -7z"/>
<path d="M2046 4030 c-37 -12 -75 -47 -92 -87 -12 -27 -14 -234 -14 -1205 0
-766 4 -1186 10 -1210 6 -20 26 -50 46 -67 l35 -31 1845 0 c2036 0 1881 -5
1923 63 l21 34 0 1204 c0 1190 0 1204 -20 1237 -12 19 -38 41 -63 52 -41 19
-88 20 -1852 19 -995 0 -1823 -5 -1839 -9z m3532 -1297 l-3 -1058 -1692 -3
-1693 -2 0 1060 0 1060 1695 0 1695 0 -2 -1057z m-1653 -1138 c31 -30 32 -62
3 -92 -23 -25 -48 -29 -79 -12 -45 24 -43 100 3 119 36 14 47 12 73 -15z"/>
<path d="M3699 3325 c-56 -18 -123 -80 -150 -138 -22 -49 -25 -131 -7 -191 12
-40 104 -146 127 -146 25 0 8 42 -28 76 -145 131 -52 369 144 369 194 0 288
-240 144 -369 -63 -57 -44 -94 20 -40 73 61 107 175 81 269 -15 55 -78 128
-133 157 -52 26 -139 32 -198 13z"/>
<path d="M3723 3205 c-61 -26 -94 -127 -61 -188 11 -21 11 -21 19 -2 4 11 8
39 8 63 1 35 7 50 31 74 28 27 36 30 73 25 56 -8 87 -43 88 -100 0 -23 4 -51
9 -62 7 -19 9 -18 19 8 49 124 -65 235 -186 182z"/>
<path d="M3736 3059 l-26 -20 0 -245 c0 -134 -4 -244 -8 -244 -4 0 -25 18 -46
40 -37 40 -70 50 -111 34 -24 -9 -47 -61 -39 -87 4 -12 45 -76 93 -142 118
-164 141 -198 141 -211 0 -6 12 -21 26 -35 25 -23 29 -24 200 -24 215 0 202
-9 256 177 36 125 38 141 38 268 0 147 -7 172 -54 184 -14 3 -37 1 -51 -4 -23
-9 -30 -7 -48 16 -18 23 -26 26 -68 22 -42 -4 -51 -2 -69 20 -19 21 -28 24
-66 19 l-44 -5 0 105 c0 97 -2 106 -25 128 -30 30 -64 32 -99 4z"/>
<path d="M3419 1324 c-10 -12 -15 -61 -19 -172 l-5 -155 -165 -92 c-164 -90
-165 -91 -165 -126 l0 -34 818 -3 817 -2 0 37 0 38 -170 93 -170 93 0 150 c0
85 -5 159 -10 170 -10 18 -26 19 -464 19 -409 0 -455 -2 -467 -16z"/>
</g>
</svg>
